<svg id="proshop_logo_tagline" xmlns="http://www.w3.org/2000/svg" version="1.1" width="779.47" height="102.93" viewBox="0 0 779.47 102.93"><title>proshop_logo_tagline_new_outlined_med_opacity</title><g id="iconTrademark"><path d="M772.28,5a7.22,7.22,0,0,1,7.19,7.32,7.24,7.24,0,1,1-14.47,0A7.27,7.27,0,0,1,772.25,5Zm0,1.14a6,6,0,0,0-5.85,6.18,5.88,5.88,0,1,0,11.74,0,6,6,0,0,0-5.86-6.21Zm-1.37,10.44h-1.3V8.42a14.39,14.39,0,0,1,2.31-.2,4.28,4.28,0,0,1,2.54.62,2,2,0,0,1,.75,1.69,2,2,0,0,1-1.6,2v.07c.72.13,1.21.78,1.37,2a6.92,6.92,0,0,0,.52,2h-1.36a6,6,0,0,1-.56-2.08,1.52,1.52,0,0,0-1.75-1.43h-.92Zm0-4.52h1c1.07,0,2-.39,2-1.4,0-.72-.52-1.43-2-1.43a7.06,7.06,0,0,0-1,.06Z" transform="translate(0 -5)" fill="#d21616"/></g><g id="proshopLogo"><path d="M539.68,5.83v60H516.62V42.73H465.88V65.8H442.82v-60h23.06V28.9h50.74V5.83ZM429,42.73A13.84,13.84,0,0,0,415.14,28.9H359.79a4.62,4.62,0,0,1,0-9.23H401.3a4.61,4.61,0,0,1,4.61,4.61H429V19.67A13.84,13.84,0,0,0,415.14,5.83H346a13.84,13.84,0,0,0-13.84,13.84V28.9A13.84,13.84,0,0,0,346,42.73h55.56a4.62,4.62,0,0,1,0,9.23H360a4.61,4.61,0,0,1-4.61-4.62H332.31V52A13.84,13.84,0,0,0,346.15,65.8h69.19A13.84,13.84,0,0,0,429.18,52ZM581.19,19.67h41.52a4.6,4.6,0,0,1,4.61,4.61V47.34A4.61,4.61,0,0,1,622.71,52H581.19a4.62,4.62,0,0,1-4.61-4.62V24.28A4.61,4.61,0,0,1,581.19,19.67ZM567.36,5.83h69.19a13.84,13.84,0,0,1,13.84,13.84V52A13.84,13.84,0,0,1,636.55,65.8H567.36A13.84,13.84,0,0,1,553.52,52V19.67A13.84,13.84,0,0,1,567.36,5.83Zm179.89,36.9A13.84,13.84,0,0,0,761.09,28.9V19.67A13.84,13.84,0,0,0,747.25,5.83H664V19.67h69.39a4.62,4.62,0,1,1,0,9.23H664V65.8h23.27V42.73Zm-587.91,0L181.25,65.8h26.32L184.71,42.73h9.23A13.83,13.83,0,0,0,207.77,28.9V19.67A13.84,13.84,0,0,0,193.94,5.83H110.7V19.67h69.4a4.62,4.62,0,0,1,0,9.23H110.7V65.8H134V42.73Zm89.74-23.06H290.6a4.6,4.6,0,0,1,4.61,4.61V47.34A4.61,4.61,0,0,1,290.6,52H249.08a4.61,4.61,0,0,1-4.61-4.62V24.28A4.6,4.6,0,0,1,249.08,19.67ZM235.25,5.83h69.19a13.84,13.84,0,0,1,13.83,13.84V52A13.84,13.84,0,0,1,304.44,65.8H235.25A13.84,13.84,0,0,1,221.41,52V19.67A13.84,13.84,0,0,1,235.25,5.83Zm-152,36.9A13.84,13.84,0,0,0,97.07,28.9V19.67A13.84,13.84,0,0,0,83.23,5.83H0V19.67H69.39a4.62,4.62,0,1,1,0,9.23H0V65.8H23.27V42.73Z" transform="translate(0 -5)" fill="#d21616" fill-rule="evenodd"/></g><g opacity="0.7"><path d="M7.42,78.81H16L16.51,99h.08l7.67-20.16h8.52l-5,28.56H22.46l4-22.8H26.4l-9.1,22.8H12.82l-1.05-22.8h-.08l-4,22.8H2.39Z" transform="translate(0 -5)"/><path d="M52.86,78.81,52,83.53H41.83l-1.19,6.72h9.6L49.41,95h-9.6l-1.35,7.68H49.05l-.83,4.72H31.87l5-28.56Z" transform="translate(0 -5)"/><path d="M67.32,87.29c.38-2.12-.11-4.8-2.43-4.8-2.8,0-4.43,2.88-5.68,10-1.21,6.88-1.34,11.2,2,11.2,1.36,0,3.82-1.48,4.37-4.56l.51-2.92h-3.8L63,92h9.32l-2.72,15.4H65.38l.47-2.64h-.08a7.81,7.81,0,0,1-6.56,3.2c-7.08,0-7.55-5.28-5.81-15.16,1.69-9.6,4.8-14.52,12.16-14.52,6.32,0,8.31,3.24,7.28,9Z" transform="translate(0 -5)"/><path d="M94.34,78.81l-.83,4.72H83.31l-1.19,6.72h9.6L90.89,95h-9.6l-1.35,7.68H90.53l-.83,4.72H73.35l5-28.56Z" transform="translate(0 -5)"/><path d="M114.34,78.81l-.83,4.72h-6.24l-4.21,23.84H97.3l4.21-23.84H95.27l.83-4.72Z" transform="translate(0 -5)"/><path d="M126.54,78.81h8.56L135.62,99h.08l7.68-20.16h8.52l-5,28.56h-5.28l4-22.8h-.08l-9.1,22.8h-4.48l-1.06-22.8h-.08l-4,22.8H121.5Z" transform="translate(0 -5)"/><path d="M172,78.81l-.83,4.72H161l-1.19,6.72h9.6L168.53,95h-9.6l-1.35,7.68h10.59l-.83,4.72H151l5-28.56Z" transform="translate(0 -5)"/><path d="M175.26,78.81H185.9c4.72,0,7.16,2.48,6.3,7.36-.67,3.8-2.64,6.36-6,7l0,.08c3.83.52,4,2.68,3.07,8.72-.49,3-.61,4.56.37,5.12l0,.24h-6.24a5.12,5.12,0,0,1-.19-3l.81-5.48c.31-2.24-.45-3.6-2.77-3.6h-3.08L176,107.37h-5.76Zm3.56,12.48h2.4c2.76,0,4.53-1.2,5.07-4.28.47-2.64-.7-4-3.3-4h-2.72Z" transform="translate(0 -5)"/><path d="M213.46,78.81l-.83,4.72h-10.2l-1.19,6.72h9.6L210,95h-9.6l-1.36,7.68h10.6l-.83,4.72H192.46l5-28.56Z" transform="translate(0 -5)"/></g><g opacity="0.7"><path d="M252.42,78.81H261L261.51,99h.08l7.67-20.16h8.52l-5,28.57h-5.28l4-22.81h-.08l-9.1,22.81h-4.48l-1.05-22.81h-.08l-4,22.81h-5.28Z" transform="translate(0 -5)"/><path d="M297.86,78.81,297,83.53h-10.2l-1.19,6.72h9.6L294.41,95h-9.6l-1.35,7.68h10.59l-.83,4.73H276.87l5-28.57Z" transform="translate(0 -5)"/><path d="M312.32,87.29c.38-2.12-.11-4.8-2.43-4.8-2.8,0-4.43,2.88-5.68,10-1.22,6.88-1.34,11.2,2,11.2,1.36,0,3.82-1.48,4.37-4.56l.51-2.92h-3.8L308,92h9.32l-2.72,15.41h-4.24l.47-2.65h-.08a7.81,7.81,0,0,1-6.56,3.2c-7.08,0-7.55-5.28-5.81-15.16,1.69-9.6,4.8-14.52,12.16-14.52,6.32,0,8.31,3.24,7.28,9Z" transform="translate(0 -5)"/><path d="M339.34,78.81l-.83,4.72h-10.2l-1.19,6.72h9.6L335.89,95h-9.6l-1.35,7.68h10.59l-.83,4.73H318.35l5-28.57Z" transform="translate(0 -5)"/><path d="M359.34,78.81l-.83,4.72h-6.24l-4.21,23.85H342.3l4.21-23.85h-6.24l.83-4.72Z" transform="translate(0 -5)"/><path d="M371.42,78.81h5.76l-1.93,10.92H382l1.93-10.92h5.76l-5,28.57h-5.76l2.24-12.69h-6.72l-2.24,12.69h-5.76Z" transform="translate(0 -5)"/><path d="M399.06,78.81l-3.51,19.92c-.5,2.84-.2,5,2.48,5s3.73-2.12,4.24-5l3.51-19.92h5.76L408,98.73c-1.29,7.28-6.07,9.2-10.75,9.2s-8.84-1.56-7.49-9.2l3.51-19.92Z" transform="translate(0 -5)"/><path d="M415.18,78.81h10.64c4.72,0,7.16,2.48,6.3,7.36-.67,3.8-2.64,6.36-6,7l0,.08c3.83.52,4,2.68,3.07,8.72-.49,3-.61,4.56.37,5.12l0,.25h-6.24a5.16,5.16,0,0,1-.19-3l.81-5.48c.31-2.24-.45-3.6-2.77-3.6H418l-2.13,12.09h-5.76Zm3.56,12.48h2.4c2.76,0,4.53-1.2,5.07-4.28.47-2.64-.7-4-3.3-4h-2.72Z" transform="translate(0 -5)"/><path d="M453.42,78.81l-.83,4.72h-6.24l-4.21,23.85h-5.76l4.21-23.85h-6.24l.83-4.72Z" transform="translate(0 -5)"/><path d="M451.14,107.38l5-28.57h5.76l-5,28.57Z" transform="translate(0 -5)"/><path d="M477.4,87.29c.38-2.12-.11-4.8-2.43-4.8-2.8,0-4.43,2.88-5.68,10-1.22,6.88-1.34,11.2,2,11.2,1.36,0,3.82-1.48,4.37-4.56l.51-2.92h-3.8L473.1,92h9.32l-2.72,15.41h-4.24l.47-2.65h-.08a7.81,7.81,0,0,1-6.56,3.2c-7.08,0-7.55-5.28-5.81-15.16,1.69-9.6,4.8-14.52,12.16-14.52,6.32,0,8.31,3.24,7.28,9Z" transform="translate(0 -5)"/><path d="M504.42,78.81l-.83,4.72h-10.2l-1.19,6.72h9.6L501,95h-9.6L490,102.65h10.59l-.83,4.73H483.43l5-28.57Z" transform="translate(0 -5)"/><path d="M507.7,78.81h10.64c4.72,0,7.16,2.48,6.3,7.36-.67,3.8-2.64,6.36-6,7v.08c3.82.52,4,2.68,3.06,8.72-.49,3-.61,4.56.37,5.12l0,.25h-6.24a5.16,5.16,0,0,1-.19-3l.81-5.48c.31-2.24-.45-3.6-2.77-3.6h-3.08l-2.13,12.09h-5.75Zm3.56,12.48h2.4c2.76,0,4.53-1.2,5.07-4.28.47-2.64-.7-4-3.3-4h-2.72Z" transform="translate(0 -5)"/><path d="M545.9,78.81l-.83,4.72h-10.2l-1.19,6.72h9.6L542.45,95h-9.6l-1.35,7.68h10.59l-.83,4.73H524.91l5-28.57Z" transform="translate(0 -5)"/></g><polygon points="230.38 73.3 223.4 73.33 232.1 87.7 218.72 102.17 218 102.17 217.97 102.21 225.72 102.17 239.1 87.7 230.38 73.3" opacity="0.7"/><polygon points="562.53 73.92 555.55 73.94 564.26 88.31 550.88 102.78 550.15 102.78 550.12 102.83 557.88 102.78 571.26 88.31 562.53 73.92" opacity="0.7"/><polygon points="574.53 73.92 567.55 73.94 576.26 88.31 562.88 102.78 562.15 102.78 562.12 102.83 569.88 102.78 583.26 88.31 574.53 73.92" opacity="0.7"/></svg>